<?xml version="1.0" encoding="UTF-8" standalone="no"?>
<!-- Created with Inkscape (http://www.inkscape.org/) -->

<svg
   xmlns:dc="http://purl.org/dc/elements/1.1/"
   xmlns:cc="http://creativecommons.org/ns#"
   xmlns:rdf="http://www.w3.org/1999/02/22-rdf-syntax-ns#"
   xmlns:svg="http://www.w3.org/2000/svg"
   xmlns="http://www.w3.org/2000/svg"
   xmlns:sodipodi="http://sodipodi.sourceforge.net/DTD/sodipodi-0.dtd"
   xmlns:inkscape="http://www.inkscape.org/namespaces/inkscape"
   width="744.09448819"
   height="1052.3622047"
   id="svg2"
   version="1.1"
   inkscape:version="0.47 r22583"
   sodipodi:docname="Logo.svg">
  <defs
     id="defs4">
    <inkscape:perspective
       sodipodi:type="inkscape:persp3d"
       inkscape:vp_x="0 : 526.18109 : 1"
       inkscape:vp_y="0 : 1000 : 0"
       inkscape:vp_z="744.09448 : 526.18109 : 1"
       inkscape:persp3d-origin="372.04724 : 350.78739 : 1"
       id="perspective10" />
  </defs>
  <sodipodi:namedview
     id="base"
     pagecolor="#ffffff"
     bordercolor="#666666"
     borderopacity="1.0"
     inkscape:pageopacity="0.0"
     inkscape:pageshadow="2"
     inkscape:zoom="4"
     inkscape:cx="27.248157"
     inkscape:cy="964.1644"
     inkscape:document-units="px"
     inkscape:current-layer="layer1"
     showgrid="false"
     showguides="true"
     inkscape:guide-bbox="true"
     inkscape:window-width="1530"
     inkscape:window-height="756"
     inkscape:window-x="367"
     inkscape:window-y="41"
     inkscape:window-maximized="0">
    <sodipodi:guide
       orientation="1,0"
       position="22.307009,1044.7613"
       id="guide2833" />
    <sodipodi:guide
       orientation="0,1"
       position="22.848388,1045.3027"
       id="guide2835" />
    <sodipodi:guide
       orientation="0,1"
       position="17.633475,1042.0765"
       id="guide2837" />
    <sodipodi:guide
       orientation="1,0"
       position="7.3804271,1026.476"
       id="guide2839" />
    <sodipodi:guide
       orientation="0,1"
       position="13.368738,1027.2052"
       id="guide2841" />
    <sodipodi:guide
       orientation="0,1"
       position="52.546873,1022.5648"
       id="guide2843" />
    <sodipodi:guide
       orientation="1,0"
       position="2.9375,1028.875"
       id="guide2845" />
    <sodipodi:guide
       orientation="1,0"
       position="26.4375,1042.0765"
       id="guide2847" />
  </sodipodi:namedview>
  <metadata
     id="metadata7">
    <rdf:RDF>
      <cc:Work
         rdf:about="">
        <dc:format>image/svg+xml</dc:format>
        <dc:type
           rdf:resource="http://purl.org/dc/dcmitype/StillImage" />
        <dc:title></dc:title>
      </cc:Work>
    </rdf:RDF>
  </metadata>
  <g
     inkscape:label="Layer 1"
     inkscape:groupmode="layer"
     id="layer1">
    <g
       style="font-size:24px;font-style:normal;font-variant:normal;font-weight:bold;font-stretch:normal;fill:#000000;fill-opacity:1;stroke:none;font-family:Verdana;-inkscape-font-specification:Bitstream Vera Sans Bold"
       id="text2816">
      <path
         d="m 22.308048,19.356035 c -1.6e-5,1.718754 -0.730484,3.11719 -2.191406,4.195313 -1.453138,1.070312 -3.429698,1.605468 -5.929688,1.605468 -2.276518,0.002 -11.249454,1.67e-4 -11.249454,1.67e-4 0,0 13.558048,-3.527508 13.558048,-3.527508 0,0 0.624989,-0.316403 0.84375,-0.527344 0.226551,-0.210934 0.339832,-0.523433 0.339844,-0.9375 -1.2e-5,-0.382807 -0.164074,-0.710932 -0.492188,-0.984375 C 16.866631,18.89901 16.393975,18.684166 15.768986,18.535723 15.112727,18.379479 14.417415,18.234948 13.683048,18.102129 12.956479,17.961511 12.272886,17.78573 11.632267,17.574785 10.163513,17.09823 9.1049203,16.4537 8.4564857,15.641191 7.815859,14.820889 7.4955469,13.805265 7.4955482,12.594316 7.4955469,10.96933 8.2221086,9.6451129 9.6752357,8.6216602 11.136168,7.5904275 13.011166,7.074803 15.300236,7.0747852 c 2.171198,-0.020201 10.120798,-0.015303 10.120798,-0.015303 0,0 -9.249475,2.3876631 -12.183298,3.5895194 -0.304695,0.117202 -0.566413,0.296889 -0.785157,0.539062 -0.218756,0.234389 -0.328131,0.50392 -0.328125,0.808594 -6e-6,0.46095 0.175776,0.816419 0.527344,1.066406 0.351556,0.2422 1.015618,0.464856 1.992188,0.667969 0.640616,0.132824 1.253896,0.26173 1.839843,0.386719 0.59374,0.125011 1.230458,0.296885 1.910157,0.515625 1.335924,0.43751 2.320298,1.035165 2.953125,1.792969 0.640609,0.750007 0.960921,1.726569 0.960937,2.929687"
         style=""
         id="path2821"
         sodipodi:nodetypes="cscccsssssscsscccsssssscc" />
      <path
         d="m 37.987736,24.84041 -12.585938,0 0,-17.4492185 4.5,14.0742185 8.085938,3.375"
         style=""
         id="path2823"
         sodipodi:nodetypes="ccccc" />
      <path
         d="m 42.558048,29.797383 -2.109375,-18.117129 4.21875,0 m 0.117188,-1.875 -4.453125,0 0,-3.1992188 4.453125,0 0,3.1992188"
         style=""
         id="path2825"
         sodipodi:nodetypes="cccccccc" />
      <path
         d="m 61.448673,23.328691 c -1.5e-5,1.234376 -0.175796,2.273437 -0.527344,3.117188 -0.351576,0.843748 -0.843763,1.503903 -1.476562,1.980469 -0.632825,0.484371 -1.398449,0.832027 -2.296875,1.042968 -0.890635,0.218746 -1.898446,0.328121 -3.023438,0.328125 l -9.521022,-5.8e-5 c 0,0 10.52915,-3.136726 10.854279,-3.269473 0.334576,-0.136604 0.822984,-0.343751 1.080806,-0.609375 0.242177,-0.250001 0.417958,-0.570313 0.527344,-0.960937 0.109364,-0.390625 0.164052,-0.859375 0.164062,-1.40625 l 0,-0.246094 c -0.507822,0.414064 -1.070322,0.742188 -1.6875,0.984375 -0.617196,0.242188 -1.304695,0.363281 -2.0625,0.363281 -1.843755,0 -3.265628,-0.554687 -4.265625,-1.664062 -1.000001,-1.109372 -1.500001,-2.796871 -1.5,-5.0625 -10e-7,-1.08593 0.152343,-2.023429 0.457031,-2.8125 0.304686,-0.789052 0.734373,-1.476552 1.289063,-2.0625 0.515622,-0.546863 1.148434,-0.972644 1.898437,-1.277344 0.757808,-0.304674 1.531244,-0.457018 2.320313,-0.457031 0.71093,1.3e-5 1.35546,0.08595 1.933594,0.257812 0.585928,0.164076 1.117177,0.394544 1.59375,0.691406 l 0.152343,-0.585937 4.089844,0 0,11.648437 m -4.21875,-2.636718 0,-5.964844 c -0.242198,-0.101552 -0.539072,-0.179677 -0.890625,-0.234375 -0.351572,-0.06249 -0.667978,-0.09374 -0.949219,-0.09375 -1.109382,10e-6 -1.941413,0.320323 -2.496093,0.960937 -0.554693,0.632822 -0.832037,1.51954 -0.832032,2.660157 -5e-6,1.26563 0.23437,2.148442 0.703125,2.648437 0.476556,0.500004 1.179681,0.750004 2.109375,0.75 0.421867,4e-6 0.835929,-0.0664 1.242188,-0.199219 0.40624,-0.132808 0.777334,-0.308589 1.113281,-0.527343"
         style=""
         id="path2827"
         sodipodi:nodetypes="cssscczssccsssssssssccccccsssssssc" />
      <path
         d="m 78.651798,29.797383 c 0,0 -2.65584,-10.593942 -4.605467,-14.238223 -0.15626,-0.289053 -0.386728,-0.49999 -0.691406,-0.632812 -0.296884,-0.132803 -0.714853,-0.199209 -1.253906,-0.199219 -0.382821,10e-6 -0.773445,0.06251 -1.171875,0.1875 -0.390632,0.12501 -0.816413,0.324228 -1.277344,0.597656 l 0,9.328125 -4.21875,0 0,-18.2343748 4.21875,0 0,6.5273438 c 0.749993,-0.585925 1.468743,-1.035144 2.15625,-1.347656 0.695304,-0.312487 1.464834,-0.468737 2.308594,-0.46875 1.421863,1.3e-5 2.531237,0.414075 3.328125,1.242187 0.804673,0.828137 1.207016,2.066417 1.207031,3.714844 l 0,13.523379"
         style=""
         id="path2829"
         sodipodi:nodetypes="ccsssccccccssscc" />
      <path
         d="m 90.956486,25.156983 -3.304688,0 c -1.64063,-1e-6 -2.863285,-0.390791 -3.667969,-1.054854 -0.796877,-0.664061 -1.195314,-1.800779 -1.195312,-3.410156 l 0,-6.152344 -1.734375,0 0,-2.859375 1.734375,0.397748 0,-4.1594668 4.21875,0 0,5.2864178 3.949219,1.334676 -3.949219,0 0,4.664062 c -6e-6,0.460943 0.0039,0.863287 0.01172,1.207032 0.05057,2.446939 1.834163,3.750633 3.9375,4.74626"
         style=""
         id="path2831"
         sodipodi:nodetypes="ccsccccccccccccc" />
    </g>
    <g
       id="g2849"
       style="font-size:24px;font-style:normal;font-variant:normal;font-weight:bold;font-stretch:normal;fill:#288ac8;fill-opacity:1;stroke:none;font-family:Verdana;-inkscape-font-specification:Bitstream Vera Sans Bold"
       transform="translate(0,53.066609)"
       inkscape:export-filename="/home/natanael/Projekty/Perl/SLight-site/Logo150.png"
       inkscape:export-xdpi="117.86"
       inkscape:export-ydpi="117.86">
      <path
         sodipodi:nodetypes="cscccsssssscsscccsssssscc"
         id="path2851"
         d="m 22.308048,19.356035 c -1.6e-5,1.718754 -0.730484,3.11719 -2.191406,4.195313 -1.453138,1.070312 -3.429698,1.605468 -5.929688,1.605468 -2.276518,0.002 -11.249454,1.67e-4 -11.249454,1.67e-4 0,0 13.558048,-3.527508 13.558048,-3.527508 0,0 0.624989,-0.316403 0.84375,-0.527344 0.226551,-0.210934 0.339832,-0.523433 0.339844,-0.9375 -1.2e-5,-0.382807 -0.164074,-0.710932 -0.492188,-0.984375 C 16.866631,18.89901 16.393975,18.684166 15.768986,18.535723 15.112727,18.379479 14.417415,18.234948 13.683048,18.102129 12.956479,17.961511 12.272886,17.78573 11.632267,17.574785 10.163513,17.09823 9.1049203,16.4537 8.4564857,15.641191 7.815859,14.820889 7.4955469,13.805265 7.4955482,12.594316 7.4955469,10.96933 8.2221086,9.6451129 9.6752357,8.6216602 11.136168,7.5904275 13.011166,7.074803 15.300236,7.0747852 c 2.171198,-0.020201 10.120798,-0.015303 10.120798,-0.015303 0,0 -9.249475,2.3876631 -12.183298,3.5895198 -0.304695,0.117202 -0.566413,0.296889 -0.785157,0.539062 -0.218756,0.234389 -0.328131,0.50392 -0.328125,0.808594 -6e-6,0.46095 0.175776,0.816419 0.527344,1.066406 0.351556,0.2422 1.015618,0.464856 1.992188,0.667969 0.640616,0.132824 1.253896,0.26173 1.839843,0.386719 0.59374,0.125011 1.230458,0.296885 1.910157,0.515625 1.335924,0.43751 2.320298,1.035165 2.953125,1.792969 0.640609,0.750007 0.960921,1.726569 0.960937,2.929687"
         style="fill:#288ac8;fill-opacity:1" />
    </g>
    <g
       transform="translate(0,53.508551)"
       style="font-size:24px;font-style:normal;font-variant:normal;font-weight:bold;font-stretch:normal;fill:#7c7c7c;fill-opacity:1;stroke:none;font-family:Verdana;-inkscape-font-specification:Bitstream Vera Sans Bold"
       id="g2863"
       inkscape:export-filename="/home/natanael/Projekty/Perl/SLight-site/Logo150.png"
       inkscape:export-xdpi="117.86"
       inkscape:export-ydpi="117.86">
      <path
         d="m 37.987736,24.84041 -12.585938,0 0,-17.4492185 4.5,14.0742185 8.085938,3.375"
         id="path2867"
         sodipodi:nodetypes="ccccc"
         style="fill:#7c7c7c;fill-opacity:1" />
      <path
         d="m 42.558048,29.797383 -2.109375,-18.117129 4.21875,0 m 0.117188,-1.875 -4.453125,0 0,-3.1992188 4.453125,0 0,3.1992188"
         id="path2869"
         sodipodi:nodetypes="cccccccc"
         style="fill:#7c7c7c;fill-opacity:1" />
      <path
         d="m 61.448673,23.328691 c -1.5e-5,1.234376 -0.175796,2.273437 -0.527344,3.117188 -0.351576,0.843748 -0.843763,1.503903 -1.476562,1.980469 -0.632825,0.484371 -1.398449,0.832027 -2.296875,1.042968 -0.890635,0.218746 -1.898446,0.328121 -3.023438,0.328125 l -9.521022,-5.8e-5 c 0,0 10.52915,-3.136726 10.854279,-3.269473 0.334576,-0.136604 0.822984,-0.343751 1.080806,-0.609375 0.242177,-0.250001 0.417958,-0.570313 0.527344,-0.960937 0.109364,-0.390625 0.164052,-0.859375 0.164062,-1.40625 l 0,-0.246094 c -0.507822,0.414064 -1.070322,0.742188 -1.6875,0.984375 -0.617196,0.242188 -1.304695,0.363281 -2.0625,0.363281 -1.843755,0 -3.265628,-0.554687 -4.265625,-1.664062 -1.000001,-1.109372 -1.500001,-2.796871 -1.5,-5.0625 -10e-7,-1.08593 0.152343,-2.023429 0.457031,-2.8125 0.304686,-0.789052 0.734373,-1.476552 1.289063,-2.0625 0.515622,-0.546863 1.148434,-0.972644 1.898437,-1.277344 0.757808,-0.304674 1.531244,-0.457018 2.320313,-0.457031 0.71093,1.3e-5 1.35546,0.08595 1.933594,0.257812 0.585928,0.164076 1.117177,0.394544 1.59375,0.691406 l 0.152343,-0.585937 4.089844,0 0,11.648437 m -4.21875,-2.636718 0,-5.964844 c -0.242198,-0.101552 -0.539072,-0.179677 -0.890625,-0.234375 -0.351572,-0.06249 -0.667978,-0.09374 -0.949219,-0.09375 -1.109382,10e-6 -1.941413,0.320323 -2.496093,0.960937 -0.554693,0.632822 -0.832037,1.51954 -0.832032,2.660157 -5e-6,1.26563 0.23437,2.148442 0.703125,2.648437 0.476556,0.500004 1.179681,0.750004 2.109375,0.75 0.421867,4e-6 0.835929,-0.0664 1.242188,-0.199219 0.40624,-0.132808 0.777334,-0.308589 1.113281,-0.527343"
         id="path2871"
         sodipodi:nodetypes="cssscczssccsssssssssccccccsssssssc"
         style="fill:#7c7c7c;fill-opacity:1" />
      <path
         d="m 78.651798,29.797383 c 0,0 -2.65584,-10.593942 -4.605467,-14.238223 -0.15626,-0.289053 -0.386728,-0.49999 -0.691406,-0.632812 -0.296884,-0.132803 -0.714853,-0.199209 -1.253906,-0.199219 -0.382821,10e-6 -0.773445,0.06251 -1.171875,0.1875 -0.390632,0.12501 -0.816413,0.324228 -1.277344,0.597656 l 0,9.328125 -4.21875,0 0,-18.2343748 4.21875,0 0,6.5273438 c 0.749993,-0.585925 1.468743,-1.035144 2.15625,-1.347656 0.695304,-0.312487 1.464834,-0.468737 2.308594,-0.46875 1.421863,1.3e-5 2.531237,0.414075 3.328125,1.242187 0.804673,0.828137 1.207016,2.066417 1.207031,3.714844 l 0,13.523379"
         id="path2873"
         sodipodi:nodetypes="ccsssccccccssscc"
         style="fill:#7c7c7c;fill-opacity:1" />
      <path
         d="m 90.956486,25.156983 -3.304688,0 c -1.64063,-1e-6 -2.863285,-0.390791 -3.667969,-1.054854 -0.796877,-0.664061 -1.195314,-1.800779 -1.195312,-3.410156 l 0,-6.152344 -1.734375,0 0,-2.859375 1.734375,0.397748 0,-4.1594668 4.21875,0 0,5.2864178 3.949219,1.334676 -3.949219,0 0,4.664062 c -6e-6,0.460943 0.0039,0.863287 0.01172,1.207032 0.05057,2.446939 1.834163,3.750633 3.9375,4.74626"
         id="path2875"
         sodipodi:nodetypes="ccsccccccccccccc"
         style="fill:#7c7c7c;fill-opacity:1" />
    </g>
    <path
       style="fill:#000000;fill-opacity:1;stroke:none"
       d="M -8.6430826,36.33812 C 24.56354,30.437572 73.36324,31.251256 105.90396,36.33812 73.145575,32.776878 27.225159,33.579833 -4.2001555,41.016426 -4.3055648,38.670953 -6.2219711,37.360335 -8.6430826,36.33812 z"
       id="rect3649"
       sodipodi:nodetypes="cccc" />
    <path
       sodipodi:nodetypes="cccc"
       id="path3654"
       d="M -8.6430826,90.078235 C 24.56354,84.177687 73.36324,84.991371 105.90396,90.078235 73.145575,86.516993 27.225159,87.319948 -4.2001555,94.756541 -4.3055648,92.411068 -6.2219711,91.10045 -8.6430826,90.078235 z"
       style="fill:#288ac8;fill-opacity:1;stroke:none"
       inkscape:export-filename="/home/natanael/Projekty/Perl/SLight-site/Logo150.png"
       inkscape:export-xdpi="117.86"
       inkscape:export-ydpi="117.86" />
  </g>
</svg>
